<svg width="32" height="32" viewBox="0 0 32 32" fill="none" xmlns="http://www.w3.org/2000/svg">
  <!-- Background Circle -->
  <circle cx="16" cy="16" r="16" fill="#000000"/>
  
  <!-- Gradient Background -->
  <defs>
    <linearGradient id="grad1" x1="0%" y1="0%" x2="100%" y2="100%">
      <stop offset="0%" style="stop-color:#7AFFA1;stop-opacity:1" />
      <stop offset="50%" style="stop-color:#FFF87C;stop-opacity:1" />
      <stop offset="100%" style="stop-color:#DDCBF5;stop-opacity:1" />
    </linearGradient>
  </defs>
  
  <!-- Note/Document Icon -->
  <path d="M8 6a2 2 0 0 1 2-2h8l4 4v14a2 2 0 0 1-2 2H10a2 2 0 0 1-2-2V6z" fill="url(#grad1)" stroke="#000" stroke-width="0.5"/>
  
  <!-- Fold Corner -->
  <path d="M18 4v4h4" fill="none" stroke="#000" stroke-width="0.5"/>
  
  <!-- Text Lines -->
  <line x1="11" y1="12" x2="21" y2="12" stroke="#000" stroke-width="1" stroke-linecap="round"/>
  <line x1="11" y1="15" x2="19" y2="15" stroke="#000" stroke-width="1" stroke-linecap="round"/>
  <line x1="11" y1="18" x2="20" y2="18" stroke="#000" stroke-width="1" stroke-linecap="round"/>
  
  <!-- Quik Lightning Bolt -->
  <path d="M13 21l2-3h-1l1-2-2 3h1l-1 2z" fill="#000" stroke="none"/>
</svg>
